<?xml version="1.0" encoding="UTF-8"?>
<svg id="Layer_2" data-name="Layer 2" xmlns="http://www.w3.org/2000/svg" viewBox="0 0 412.32 110.88">
  <defs>
    <style>
      .cls-1 {
        fill: #fff;
      }

      .cls-2 {
        fill: none;
      }
    </style>
  </defs>
  <g id="Layer_1-2" data-name="Layer 1">
    <g>
      <g>
        <path class="cls-1" d="M110.78,33.71h6.51l-14.51,23.2v20.26h-8.46l.11-17.27-16.29-26.19,10.13.06,11.11,18.19,11.4-18.25Z"/>
        <path class="cls-1" d="M142.96,54.95v17.33h23.37l-3.74,4.95h-27.98v-43.29h32.58l-4.66,4.78h-19.57v11.51h23.14l-3.8,4.72h-19.34Z"/>
        <path class="cls-1" d="M220.04,33.94h4.78v43.29h-5.41l-27.4-29.48v29.48h-4.78v-43.29h4.26l28.55,30.51v-30.51Z"/>
        <path class="cls-1" d="M268.4,33.07c3.95,0,7.63,1.01,11.02,3.02,3.4,2.01,6.1,4.75,8.12,8.2,2.01,3.45,3.02,7.17,3.02,11.14s-1.01,7.68-3.02,11.11c-2.01,3.44-4.72,6.17-8.12,8.2s-7.07,3.05-11.02,3.05-7.56-1.02-10.94-3.05c-3.38-2.03-6.06-4.77-8.06-8.2-2-3.43-2.99-7.14-2.99-11.11s1-7.69,2.99-11.14c2-3.45,4.68-6.19,8.06-8.2,3.38-2.02,7.02-3.02,10.94-3.02ZM265.35,38.14c-3.22.54-5.8,2.17-7.71,4.89-1.34,1.88-2.25,4.12-2.71,6.71s-.44,5.31.06,8.15c.88,4.95,2.88,8.83,5.99,11.63,3.11,2.8,6.62,3.88,10.54,3.22,3.22-.54,5.81-2.23,7.77-5.07,1.38-1.92,2.31-4.21,2.79-6.88.48-2.67.47-5.4-.03-8.2-.77-4.38-2.5-7.91-5.18-10.59-2.69-2.69-5.8-4.03-9.33-4.03-.73,0-1.46.06-2.19.17Z"/>
        <path class="cls-1" d="M332.25,33.07c3.95,0,7.63,1.01,11.02,3.02,3.4,2.01,6.1,4.75,8.12,8.2,2.01,3.45,3.02,7.17,3.02,11.14s-1.01,7.68-3.02,11.11c-2.02,3.44-4.72,6.17-8.12,8.2-3.4,2.03-7.07,3.05-11.02,3.05s-7.56-1.02-10.94-3.05c-3.38-2.03-6.06-4.77-8.06-8.2-2-3.43-2.99-7.14-2.99-11.11s1-7.69,2.99-11.14c2-3.45,4.68-6.19,8.06-8.2,3.38-2.02,7.02-3.02,10.94-3.02ZM329.19,38.14c-3.22.54-5.8,2.17-7.71,4.89-1.34,1.88-2.25,4.12-2.71,6.71-.46,2.59-.44,5.31.06,8.15.88,4.95,2.88,8.83,5.99,11.63,3.11,2.8,6.62,3.88,10.54,3.22,3.22-.54,5.81-2.23,7.77-5.07,1.38-1.92,2.31-4.21,2.79-6.88.48-2.67.47-5.4-.03-8.2-.77-4.38-2.5-7.91-5.18-10.59-2.69-2.69-5.8-4.03-9.33-4.03-.73,0-1.46.06-2.19.17Z"/>
        <path class="cls-1" d="M412.32,50.86c0,3.15-.7,5.96-2.1,8.43-1.4,2.48-3.37,4.38-5.9,5.73v.06l8,12.15h-10.36l-5.58-8.87c-.46-.69-1.11-1.04-1.96-1.04-.42.04-.81.06-1.15.06h-8.81v9.84h-8.46v-43.29l17.33.06c3.38,0,6.52.74,9.44,2.22,2.92,1.48,5.24,3.48,6.97,6.02s2.59,5.28,2.59,8.23v.4ZM384.46,38.2v24.93h8.81c2.34,0,4.33-.61,5.96-1.84,1.63-1.23,2.8-2.73,3.51-4.52.71-1.78,1.06-3.73,1.06-5.84v-.52c0-2.11-.36-4.07-1.06-5.87-.71-1.8-1.88-3.31-3.51-4.52-1.63-1.21-3.62-1.81-5.96-1.81h-8.81Z"/>
      </g>
      <g>
        <path class="cls-2" d="M43.78,59.6c-1.88-1.27-3.49-2.92-4.56-4.96-.83-1.52-1.35-3.2-1.52-4.91-.45-3.02-.06-6,.82-9.02-.1.06-.18.15-.27.26l-3.33,6.95c-.56,1.25-1.12,2.49-1.71,3.72.3,3.99-.45,8.69-.01,12.58.04.36.13.72.27,1.06l1.47,1.89c.56.73.89,1.15.89,1.15l7.94,9.76v-18.48Z"/>
        <path class="cls-2" d="M17.59,86.18c1.32,1.21,2.61.52,4.11.38,7.83-3.6,6.65-13.28.88-18.33-.46-.4-.94-.77-1.43-1.12,0,0,0,0,0,0-.05-.04-.1-.07-.15-.11-1.63-1.11-3.4-1.94-5.18-2.72-.01,0-.02,0-.03-.01v19.05c.6,1.18,1.39,2.46,1.81,2.85Z"/>
        <path class="cls-2" d="M37.82,7.85c-.81-.22-1.63-.42-2.47-.57-.08-.02-.16-.04-.24-.05l-3.96,4.82c-.64.71-1.69.72-2.35.03l-4-4.85c-.08.01-.16.03-.23.05-.84.15-1.67.35-2.48.57C9.9,11.29.94,22.51.94,35.79v39.31c0,13.28,8.97,24.5,21.16,27.93.81.23,1.63.42,2.46.58.09.02.16.03.25.05l3.96-4.83c.64-.7,1.69-.72,2.35-.03l4,4.86c.08-.02.15-.03.23-.05.84-.16,1.67-.35,2.48-.58,12.18-3.43,21.15-14.65,21.15-27.93v-39.31c0-13.28-8.97-24.5-21.16-27.94ZM58.11,75.1c0,13.01-8.87,23.99-20.89,27.2l-.33-.4c11.92-3.08,20.75-13.93,20.75-26.8v-12.19c-2.29.07-4.6-.05-6.86-.5-1.73-.33-3.44-.9-5.05-1.69l-.21,19.21c.05,2.31.06,4.61-.05,6.86.02.67-.42.85-.99.58l-15.49-19.66-.49-.63-.92-1.18-.4-.5s0,0,0,0l-11.4-14.48v12.84c5.21,1.82,10.68,6.1,11.76,11.68.82,4.25-.63,9.09-4.73,11.08-3.75,1.82-8.28.41-12.31.75.34-.68,1.1-.95,1.58-1.46.58-.62,1.13-1.51,1.57-2.47v-19.8c-1.52-.5-3.06-.96-4.56-1.5-3.78-1.31-5.98-3.34-6.82-6.55v19.61c0,12.87,8.83,23.72,20.75,26.8l-.33.4c-12.02-3.21-20.89-14.19-20.89-27.2v-39.32c0-13.01,8.87-23.99,20.89-27.2l.33.4C11.11,12.07,2.28,22.91,2.28,35.78v17.76c.41,4.22,2.59,6.64,6.95,8.13,1.45.5,2.95.95,4.43,1.43v-15.35c-.92-1.09-2.05-2.22-2.56-3.19-.13-.24-.27-.37-.19-.69h5.79l.57.41c2.44,3.18,6.75,8.76,10.61,13.74h0s.64.83.64.83c-.03-3.41-.32-6.75-.32-6.75-4.2-7.12-7.46-15.28-11.75-22.29-1.43-2.34-3.21-4.15-5.27-5.94l.29-.49h10.23c1.08.15-.34,1.57-.53,2.22-.21.71-.23,1.65-.14,2.39.43,3.39,7.31,15.24,9.33,19,.19.36,1.12,2.16,1.76,3.26l10.93-22.84c-.01-.79-.21-1.55-.7-2.24-.39-.55-1.16-.84-1.07-1.59h7.18l.2.39c-2.42,2.02-4.2,4.4-5.63,7.03l-1.7,3.55c-.23.55-.46,1.11-.68,1.68-2.12,5.54-3.87,11.61-1.34,17.35.11.24.22.47.34.69.89,1.58,2.11,2.94,3.56,4.05.19.14.39.27.58.4v-11.41c-.34-.6-.77-1.2-1.33-1.81-.43-.46-1.48-.7-1.31-1.44h8.25c.05.35.01.43-.21.68-.37.43-1.19.9-1.66,1.48-.83,1.02-1.35,2.18-1.67,3.42l-.11,10.23c.45.23.91.46,1.37.67,1.21.49,2.49.86,3.82,1.1,2.2.43,4.45.59,6.71.59v-26.46c0-12.87-8.83-23.72-20.75-26.8l.33-.4c12.02,3.21,20.89,14.18,20.89,27.2v39.31Z"/>
        <path class="cls-1" d="M37.22,8.59l-.33.4c11.92,3.08,20.75,13.93,20.75,26.8v26.46c-2.26,0-4.51-.16-6.71-.59-1.33-.24-2.61-.61-3.82-1.1-.47-.21-.92-.44-1.37-.67l.11-10.23c.32-1.24.83-2.41,1.67-3.42.47-.58,1.29-1.05,1.66-1.48.22-.25.26-.33.21-.68h-8.25c-.17.74.88.98,1.31,1.44.56.61.99,1.21,1.33,1.81v11.41c-.2-.13-.39-.26-.58-.4-1.45-1.11-2.67-2.47-3.56-4.05-.12-.22-.23-.45-.34-.69-2.53-5.74-.78-11.81,1.34-17.35.22-.57.44-1.12.68-1.68l1.7-3.55c1.44-2.63,3.22-5.01,5.63-7.03l-.2-.39h-7.18c-.09.75.68,1.04,1.07,1.59.49.69.69,1.45.7,2.24l-10.93,22.84c-.64-1.1-1.57-2.9-1.76-3.26-2.02-3.76-8.9-15.61-9.33-19-.09-.74-.07-1.68.14-2.39.19-.65,1.61-2.07.53-2.22h-10.23l-.29.49c2.06,1.79,3.84,3.6,5.27,5.94,4.29,7.01,7.55,15.17,11.75,22.29,0,0,.29,3.34.32,6.75l-.64-.83h0c-3.85-4.99-8.17-10.57-10.61-13.75l-.57-.41h-5.79c-.08.32.07.46.19.69.51.97,1.64,2.1,2.56,3.19v15.35c-1.48-.48-2.98-.93-4.43-1.43-4.36-1.49-6.54-3.91-6.95-8.13v-17.76c0-12.87,8.83-23.71,20.75-26.8l-.33-.4C10.68,11.79,1.81,22.77,1.81,35.78v39.32c0,13.01,8.88,23.99,20.89,27.2l.33-.4c-11.92-3.08-20.75-13.93-20.75-26.8v-19.61c.84,3.22,3.04,5.25,6.82,6.55,1.5.53,3.04,1,4.56,1.5v19.8c-.44.96-.98,1.85-1.57,2.47-.48.52-1.24.78-1.58,1.46,4.02-.34,8.56,1.07,12.31-.75,4.09-1.99,5.55-6.83,4.73-11.08-1.08-5.58-6.56-9.86-11.76-11.68v-12.84l11.4,14.48s0,0,0,0l.4.5.92,1.18.49.63,15.49,19.66c.57.27,1.01.09.99-.58.11-2.25.1-4.55.05-6.86l.21-19.21c1.61.79,3.32,1.36,5.05,1.69,2.26.45,4.57.57,6.86.5v12.19c0,12.87-8.83,23.72-20.75,26.8l.33.4c12.02-3.21,20.89-14.19,20.89-27.2v-39.31c0-13.02-8.87-23.99-20.89-27.2ZM15.81,64.29c1.78.78,3.55,1.61,5.18,2.72.05.04.1.07.15.11,0,0,0,0,0,0,.49.34.97.71,1.43,1.12,5.78,5.05,6.96,14.72-.88,18.33-1.5.14-2.79.83-4.11-.38-.42-.39-1.22-1.67-1.81-2.85v-19.05s.02,0,.03.01ZM34.95,67.17l-1.47-1.89c-.14-.34-.23-.7-.27-1.06-.44-3.89.31-8.59.01-12.58.58-1.23,1.15-2.47,1.71-3.72l3.33-6.95c.08-.11.17-.2.27-.26-.88,3.02-1.27,6-.82,9.02.17,1.71.69,3.39,1.52,4.91,1.07,2.04,2.68,3.69,4.56,4.96v18.48l-7.94-9.76s-.33-.42-.89-1.15Z"/>
        <path class="cls-1" d="M38.47,7.06c-.8-.24-1.61-.44-2.44-.61-.08-.02-.16-.03-.24-.05l1.69-2.05.2-.41v-.73l-.2-.41c-.3-.42-.7-.78-1.06-1.14-.92-.91-1.59-1.53-2.97-1.61-2.29.09-4.67-.13-6.95,0-1.88.11-2.84,1.45-4.03,2.7l-.23.47v.73l.22.45,1.66,2.01c-.08.02-.16.03-.23.05-.83.17-1.65.38-2.45.61C9.06,10.74,0,22.23,0,35.79v39.31c0,13.56,9.06,25.05,21.45,28.73.8.23,1.61.44,2.44.61.07.02.15.03.23.05l-1.68,2.05-.2.41v.72l.2.42c.3.41.7.78,1.06,1.14.92.91,1.59,1.53,2.97,1.61,2.29-.09,4.67.13,6.95,0,1.88-.1,2.84-1.44,4.03-2.69l.23-.48v-.72l-.23-.45-1.65-2.01c.08-.02.16-.03.23-.05.83-.17,1.65-.38,2.45-.62,12.38-3.67,21.44-15.16,21.44-28.72v-39.31c0-13.57-9.06-25.05-21.45-28.73ZM58.98,75.1c0,13.28-8.97,24.5-21.15,27.93-.81.23-1.64.42-2.48.58-.08.02-.15.03-.23.05l-4-4.86c-.66-.69-1.71-.67-2.35.03l-3.96,4.83c-.09-.02-.16-.03-.25-.05-.83-.16-1.65-.35-2.46-.58-12.19-3.43-21.16-14.65-21.16-27.93v-39.31C.94,22.51,9.9,11.29,22.09,7.85c.81-.22,1.64-.42,2.48-.57.07-.02.15-.04.23-.05l4,4.85c.66.69,1.71.68,2.35-.03l3.96-4.82c.08.01.16.03.24.05.84.15,1.66.35,2.47.57,12.19,3.44,21.16,14.66,21.16,27.94v39.31Z"/>
      </g>
    </g>
  </g>
</svg>