<?xml version="1.0" encoding="UTF-8"?>
<svg id="Layer_2" data-name="Layer 2" xmlns="http://www.w3.org/2000/svg" viewBox="0 0 334.19 44.73">
  <defs>
    <style>
      .cls-1 {
        fill: #fff;
      }
    </style>
  </defs>
  <g id="Layer_1-2" data-name="Layer 1">
    <g>
      <path class="cls-1" d="M32.64.63h6.51l-14.51,23.2v20.26h-8.46l.11-17.27L0,.63l10.13.06,11.11,18.19L32.64.63Z"/>
      <path class="cls-1" d="M64.82,21.88v17.33h23.37l-3.74,4.95h-27.98V.86h32.58l-4.66,4.78h-19.57v11.51h23.14l-3.8,4.72h-19.34Z"/>
      <path class="cls-1" d="M141.91.86h4.78v43.29h-5.41l-27.4-29.48v29.48h-4.78V.86h4.26l28.55,30.51V.86Z"/>
      <path class="cls-1" d="M190.26,0c3.95,0,7.63,1.01,11.02,3.02,3.4,2.01,6.1,4.75,8.12,8.2,2.01,3.45,3.02,7.17,3.02,11.14s-1.01,7.68-3.02,11.11c-2.01,3.44-4.72,6.17-8.12,8.2s-7.07,3.05-11.02,3.05-7.56-1.02-10.94-3.05c-3.38-2.03-6.06-4.77-8.06-8.2-2-3.43-2.99-7.14-2.99-11.11s1-7.69,2.99-11.14c2-3.45,4.68-6.19,8.06-8.2,3.38-2.02,7.02-3.02,10.94-3.02ZM187.21,5.07c-3.22.54-5.8,2.17-7.71,4.89-1.34,1.88-2.25,4.12-2.71,6.71s-.44,5.31.06,8.15c.88,4.95,2.88,8.83,5.99,11.63,3.11,2.8,6.62,3.88,10.54,3.22,3.22-.54,5.81-2.23,7.77-5.07,1.38-1.92,2.31-4.21,2.79-6.88.48-2.67.47-5.4-.03-8.2-.77-4.38-2.5-7.91-5.18-10.59-2.69-2.69-5.8-4.03-9.33-4.03-.73,0-1.46.06-2.19.17Z"/>
      <path class="cls-1" d="M254.11,0c3.95,0,7.63,1.01,11.02,3.02,3.4,2.01,6.1,4.75,8.12,8.2,2.01,3.45,3.02,7.17,3.02,11.14s-1.01,7.68-3.02,11.11c-2.02,3.44-4.72,6.17-8.12,8.2-3.4,2.03-7.07,3.05-11.02,3.05s-7.56-1.02-10.94-3.05c-3.38-2.03-6.06-4.77-8.06-8.2-2-3.43-2.99-7.14-2.99-11.11s1-7.69,2.99-11.14c2-3.45,4.68-6.19,8.06-8.2,3.38-2.02,7.02-3.02,10.94-3.02ZM251.06,5.07c-3.22.54-5.8,2.17-7.71,4.89-1.34,1.88-2.25,4.12-2.71,6.71-.46,2.59-.44,5.31.06,8.15.88,4.95,2.88,8.83,5.99,11.63,3.11,2.8,6.62,3.88,10.54,3.22,3.22-.54,5.81-2.23,7.77-5.07,1.38-1.92,2.31-4.21,2.79-6.88.48-2.67.47-5.4-.03-8.2-.77-4.38-2.5-7.91-5.18-10.59-2.69-2.69-5.8-4.03-9.33-4.03-.73,0-1.46.06-2.19.17Z"/>
      <path class="cls-1" d="M334.19,17.79c0,3.15-.7,5.96-2.1,8.43-1.4,2.48-3.37,4.38-5.9,5.73v.06l8,12.15h-10.36l-5.58-8.87c-.46-.69-1.11-1.04-1.96-1.04-.42.04-.81.06-1.15.06h-8.81v9.84h-8.46V.86l17.33.06c3.38,0,6.52.74,9.44,2.22,2.92,1.48,5.24,3.48,6.97,6.02s2.59,5.28,2.59,8.23v.4ZM306.32,5.12v24.93h8.81c2.34,0,4.33-.61,5.96-1.84,1.63-1.23,2.8-2.73,3.51-4.52.71-1.78,1.06-3.73,1.06-5.84v-.52c0-2.11-.36-4.07-1.06-5.87-.71-1.8-1.88-3.31-3.51-4.52-1.63-1.21-3.62-1.81-5.96-1.81h-8.81Z"/>
    </g>
  </g>
</svg>